<?xml version="1.0" encoding="UTF-8" standalone="no"?>
<!-- Created with Inkscape (http://www.inkscape.org/) -->

<svg
   xmlns:dc="http://purl.org/dc/elements/1.1/"
   xmlns:cc="http://creativecommons.org/ns#"
   xmlns:rdf="http://www.w3.org/1999/02/22-rdf-syntax-ns#"
   xmlns:svg="http://www.w3.org/2000/svg"
   xmlns="http://www.w3.org/2000/svg"
   xmlns:sodipodi="http://sodipodi.sourceforge.net/DTD/sodipodi-0.dtd"
   xmlns:inkscape="http://www.inkscape.org/namespaces/inkscape"
   id="svg2"
   version="1.1"
   inkscape:version="0.48.5 r10040"
   width="310.42722"
   height="97.919029"
   xml:space="preserve"
   sodipodi:docname="guide_de_la_boite_postale_-_particuliers.pdf"><metadata
     id="metadata8"><rdf:RDF><cc:Work
         rdf:about=""><dc:format>image/svg+xml</dc:format><dc:type
           rdf:resource="http://purl.org/dc/dcmitype/StillImage" /><dc:title></dc:title></cc:Work></rdf:RDF></metadata><defs
     id="defs6"><clipPath
       clipPathUnits="userSpaceOnUse"
       id="clipPath158"><path
         d="m 15.118,13.727 103.937,0 0,36.352 -103.937,0 0,-36.352 z"
         id="path160"
         inkscape:connector-curvature="0" /></clipPath></defs><sodipodi:namedview
     pagecolor="#ffffff"
     bordercolor="#666666"
     borderopacity="1"
     objecttolerance="10"
     gridtolerance="10"
     guidetolerance="10"
     inkscape:pageopacity="0"
     inkscape:pageshadow="2"
     inkscape:window-width="1280"
     inkscape:window-height="669"
     id="namedview4"
     showgrid="false"
     fit-margin-top="0"
     fit-margin-left="0"
     fit-margin-right="0"
     fit-margin-bottom="0"
     inkscape:zoom="1.7941495"
     inkscape:cx="225.02001"
     inkscape:cy="-10.009867"
     inkscape:window-x="0"
     inkscape:window-y="1"
     inkscape:window-maximized="1"
     inkscape:current-layer="g10" /><g
     id="g10"
     inkscape:groupmode="layer"
     inkscape:label="guide_de_la_boite_postale_-_particuliers"
     transform="matrix(1.25,0,0,-1.25,-18.897624,115.07778)"><g
       id="g154"
       transform="matrix(2.3893513,0,0,2.3893513,-21.004353,-19.071626)"><g
         id="g156"
         clip-path="url(#clipPath158)"><g
           id="g162"
           transform="translate(57.0385,25.1423)"><path
             d="m 0,0 -1.262,-1.348 c -1.142,-0.233 -2.059,-0.435 -3.817,-1.686 -0.842,-0.599 -4.468,-1.917 -5.375,-5.63 l 0.131,-1.25 16.111,0 0,28.504 -24.939,0 c 0,0 5.834,-2.313 7.065,-2.853 1.234,-0.54 1.84,-0.921 3.197,-1.82 1.361,-0.897 7.759,-6.17 8.47,-9.103 C 0.016,3.021 0.37,2.146 0.587,1.231 L 0,0 z"
             style="fill:#fbbc09;fill-opacity:1;fill-rule:nonzero;stroke:none"
             id="path164"
             inkscape:connector-curvature="0" /></g><path
           d="m 119.016,15.232 -52.769,0 0,4.5 52.769,0 0,-4.5 z"
           style="fill:#00abb8;fill-opacity:1;fill-rule:nonzero;stroke:none"
           id="path166"
           inkscape:connector-curvature="0" /><g
           id="g168"
           transform="translate(67.507,15.851)"><path
             d="m 0,0 0,3.157 0.506,0 1.142,-1.6 C 1.906,1.187 2.12,0.861 2.283,0.531 L 2.302,0.537 C 2.258,0.958 2.246,1.345 2.246,1.831 l 0,1.326 0.436,0 L 2.682,0 2.216,0 1.082,1.6 C 0.832,1.951 0.595,2.312 0.416,2.654 L 0.403,2.65 C 0.43,2.252 0.435,1.872 0.435,1.349 L 0.435,0 0,0 z"
             style="fill:#ffffff;fill-opacity:1;fill-rule:nonzero;stroke:none"
             id="path170"
             inkscape:connector-curvature="0" /></g><g
           id="g172"
           transform="translate(72.4851,16.1066)"><path
             d="m 0,0 c 0.445,0 0.778,0.371 0.778,0.885 0,0.385 -0.219,0.867 -0.767,0.867 -0.547,0 -0.786,-0.45 -0.786,-0.879 C -0.775,0.375 -0.457,0 -0.006,0 L 0,0 z m -0.017,-0.306 c -0.692,0 -1.231,0.448 -1.231,1.165 0,0.758 0.569,1.202 1.273,1.202 0.739,0 1.233,-0.473 1.233,-1.161 0,-0.841 -0.66,-1.206 -1.27,-1.206 l -0.005,0 z"
             style="fill:#ffffff;fill-opacity:1;fill-rule:nonzero;stroke:none"
             id="path174"
             inkscape:connector-curvature="0" /></g><g
           id="g176"
           transform="translate(76.9299,16.4689)"><path
             d="m 0,0 c 0,-0.234 0.006,-0.441 0.022,-0.618 l -0.414,0 -0.028,0.368 -0.01,0 c -0.116,-0.183 -0.39,-0.419 -0.847,-0.419 -0.402,0 -0.883,0.199 -0.883,0.992 l 0,1.324 0.466,0 0,-1.249 c 0,-0.433 0.152,-0.726 0.572,-0.726 0.312,0 0.528,0.191 0.614,0.379 0.028,0.056 0.042,0.129 0.042,0.209 l 0,1.387 L 0,1.647 0,0 z"
             style="fill:#ffffff;fill-opacity:1;fill-rule:nonzero;stroke:none"
             id="path178"
             inkscape:connector-curvature="0" /></g><g
           id="g180"
           transform="translate(78.3349,18.1162)"><path
             d="M 0,0 0.502,-1.27 C 0.587,-1.48 0.657,-1.666 0.71,-1.854 l 0.014,0 C 0.786,-1.666 0.86,-1.48 0.943,-1.27 L 1.442,0 1.931,0 0.92,-2.265 0.475,-2.265 -0.499,0 0,0 z"
             style="fill:#ffffff;fill-opacity:1;fill-rule:nonzero;stroke:none"
             id="path182"
             inkscape:connector-curvature="0" /></g><g
           id="g184"
           transform="translate(82.7243,17.209)"><path
             d="M 0,0 C 0.003,0.255 -0.124,0.67 -0.642,0.67 -1.12,0.67 -1.32,0.285 -1.358,0 L 0,0 z m -1.364,-0.297 c 0.012,-0.556 0.408,-0.786 0.874,-0.786 0.335,0 0.542,0.05 0.714,0.112 l 0.082,-0.29 c -0.163,-0.063 -0.451,-0.145 -0.857,-0.145 -0.785,0 -1.263,0.463 -1.263,1.141 0,0.69 0.462,1.228 1.209,1.228 0.839,0 1.054,-0.65 1.054,-1.068 0,-0.083 -0.004,-0.15 -0.015,-0.196 l -1.798,0.004 z"
             style="fill:#ffffff;fill-opacity:1;fill-rule:nonzero;stroke:none"
             id="path186"
             inkscape:connector-curvature="0" /></g><path
           d="m 84.202,19.174 0.465,0 0,-3.323 -0.465,0 0,3.323 z"
           style="fill:#ffffff;fill-opacity:1;fill-rule:nonzero;stroke:none"
           id="path188"
           inkscape:connector-curvature="0" /><path
           d="m 85.893,19.174 0.464,0 0,-3.323 -0.464,0 0,3.323 z"
           style="fill:#ffffff;fill-opacity:1;fill-rule:nonzero;stroke:none"
           id="path190"
           inkscape:connector-curvature="0" /><g
           id="g192"
           transform="translate(89.209,17.209)"><path
             d="M 0,0 C 0.006,0.255 -0.122,0.67 -0.643,0.67 -1.118,0.67 -1.319,0.285 -1.356,0 L 0,0 z m -1.362,-0.297 c 0.013,-0.556 0.41,-0.786 0.877,-0.786 0.333,0 0.54,0.05 0.709,0.112 l 0.083,-0.29 c -0.162,-0.063 -0.448,-0.145 -0.857,-0.145 -0.785,0 -1.263,0.463 -1.263,1.141 0,0.69 0.464,1.228 1.21,1.228 0.837,0 1.055,-0.65 1.055,-1.068 0,-0.083 -0.005,-0.15 -0.018,-0.196 l -1.796,0.004 z"
             style="fill:#ffffff;fill-opacity:1;fill-rule:nonzero;stroke:none"
             id="path194"
             inkscape:connector-curvature="0" /></g><path
           d="m 91.768,16.965 -1.306,0 0,0.298 1.306,0 0,-0.298 z"
           style="fill:#ffffff;fill-opacity:1;fill-rule:nonzero;stroke:none"
           id="path196"
           inkscape:connector-curvature="0" /><g
           id="g198"
           transform="translate(95.2731,15.9479)"><path
             d="m 0,0 c -0.161,-0.075 -0.505,-0.147 -0.942,-0.147 -1.007,0 -1.761,0.56 -1.761,1.6 0,0.992 0.76,1.655 1.865,1.655 0.442,0 0.727,-0.084 0.849,-0.138 L -0.105,2.637 c -0.17,0.074 -0.419,0.13 -0.718,0.13 -0.838,0 -1.391,-0.473 -1.391,-1.302 0,-0.777 0.502,-1.267 1.368,-1.267 0.285,0 0.571,0.051 0.755,0.13 L 0,0 z"
             style="fill:#ffffff;fill-opacity:1;fill-rule:nonzero;stroke:none"
             id="path200"
             inkscape:connector-curvature="0" /></g><g
           id="g202"
           transform="translate(97.6064,17.0068)"><path
             d="m 0,0 c -0.508,0.009 -1.086,-0.072 -1.086,-0.511 0,-0.272 0.199,-0.394 0.433,-0.394 0.339,0 0.556,0.19 0.632,0.381 C -0.004,-0.482 0,-0.436 0,-0.393 L 0,0 z m 0.457,-0.613 c 0,-0.197 0.008,-0.391 0.038,-0.543 l -0.42,0 -0.043,0.285 -0.017,0 c -0.137,-0.178 -0.417,-0.336 -0.784,-0.336 -0.519,0 -0.784,0.323 -0.784,0.65 0,0.547 0.551,0.849 1.544,0.842 l 0,0.047 c 0,0.188 -0.061,0.528 -0.583,0.524 -0.245,0 -0.494,-0.061 -0.675,-0.168 l -0.105,0.277 c 0.212,0.117 0.524,0.196 0.847,0.196 0.79,0 0.982,-0.473 0.982,-0.927 l 0,-0.847 z"
             style="fill:#ffffff;fill-opacity:1;fill-rule:nonzero;stroke:none"
             id="path204"
             inkscape:connector-curvature="0" /></g><path
           d="m 99.258,19.174 0.469,0 0,-3.323 -0.469,0 0,3.323 z"
           style="fill:#ffffff;fill-opacity:1;fill-rule:nonzero;stroke:none"
           id="path206"
           inkscape:connector-curvature="0" /><g
           id="g208"
           transform="translate(102.6874,19.0635)"><path
             d="m 0,0 -0.646,-0.67 -0.326,0 L -0.505,0 0,0 z m -0.111,-1.854 c 0.005,0.255 -0.121,0.67 -0.638,0.67 -0.48,0 -0.68,-0.386 -0.716,-0.67 l 1.354,0 z m -1.361,-0.297 c 0.012,-0.556 0.409,-0.786 0.874,-0.786 0.335,0 0.544,0.05 0.71,0.112 L 0.197,-3.116 C 0.035,-3.179 -0.252,-3.26 -0.66,-3.26 c -0.787,0 -1.263,0.463 -1.263,1.141 0,0.69 0.463,1.227 1.21,1.227 0.836,0 1.053,-0.65 1.053,-1.067 0,-0.084 -0.004,-0.15 -0.014,-0.196 l -1.798,0.004 z"
             style="fill:#ffffff;fill-opacity:1;fill-rule:nonzero;stroke:none"
             id="path210"
             inkscape:connector-curvature="0" /></g><g
           id="g212"
           transform="translate(105.8078,17.1957)"><path
             d="m 0,0 c 0,0.053 -0.007,0.119 -0.024,0.178 -0.067,0.256 -0.322,0.471 -0.673,0.471 -0.48,0 -0.768,-0.374 -0.768,-0.871 0,-0.463 0.26,-0.842 0.757,-0.842 0.313,0 0.601,0.186 0.684,0.492 C -0.007,-0.516 0,-0.462 0,-0.395 L 0,0 z m 0.465,1.978 0,-2.739 c 0,-0.2 0.004,-0.431 0.02,-0.584 l -0.417,0 -0.022,0.394 -0.011,0 c -0.142,-0.254 -0.451,-0.444 -0.869,-0.444 -0.621,0 -1.102,0.462 -1.102,1.149 -0.006,0.76 0.53,1.218 1.148,1.218 0.398,0 0.663,-0.163 0.774,-0.341 l 0.014,0 0,1.347 0.465,0 z"
             style="fill:#ffffff;fill-opacity:1;fill-rule:nonzero;stroke:none"
             id="path214"
             inkscape:connector-curvature="0" /></g><g
           id="g216"
           transform="translate(108.5548,16.1066)"><path
             d="m 0,0 c 0.446,0 0.782,0.371 0.782,0.885 0,0.385 -0.218,0.867 -0.77,0.867 -0.546,0 -0.786,-0.45 -0.786,-0.879 C -0.774,0.375 -0.454,0 -0.004,0 L 0,0 z m -0.016,-0.306 c -0.687,0 -1.229,0.448 -1.229,1.165 0,0.758 0.568,1.202 1.274,1.202 0.734,0 1.234,-0.473 1.234,-1.161 0,-0.841 -0.661,-1.206 -1.272,-1.206 l -0.007,0 z"
             style="fill:#ffffff;fill-opacity:1;fill-rule:nonzero;stroke:none"
             id="path218"
             inkscape:connector-curvature="0" /></g><g
           id="g220"
           transform="translate(110.8559,17.5032)"><path
             d="m 0,0 c 0,0.238 -0.005,0.426 -0.02,0.613 l 0.413,0 0.028,-0.371 0.01,0 c 0.126,0.212 0.422,0.422 0.848,0.422 0.355,0 0.907,-0.187 0.907,-0.965 l 0,-1.351 -0.466,0 0,1.304 C 1.72,0.018 1.563,0.327 1.125,0.327 0.824,0.327 0.585,0.135 0.499,-0.095 0.48,-0.146 0.465,-0.22 0.465,-0.287 l 0,-1.365 L 0,-1.652 0,0 z"
             style="fill:#ffffff;fill-opacity:1;fill-rule:nonzero;stroke:none"
             id="path222"
             inkscape:connector-curvature="0" /></g><path
           d="m 114.248,18.116 0.465,0 0,-2.265 -0.465,0 0,2.265 z m 0.222,0.416 c -0.175,0 -0.291,0.121 -0.291,0.27 0,0.143 0.123,0.261 0.302,0.261 0.182,0 0.297,-0.118 0.297,-0.261 0,-0.149 -0.115,-0.27 -0.3,-0.27 l -0.008,0 z"
           style="fill:#ffffff;fill-opacity:1;fill-rule:nonzero;stroke:none"
           id="path224"
           inkscape:connector-curvature="0" /><g
           id="g226"
           transform="translate(117.5667,17.209)"><path
             d="M 0,0 C 0.004,0.255 -0.122,0.67 -0.642,0.67 -1.118,0.67 -1.322,0.285 -1.356,0 L 0,0 z m -1.362,-0.297 c 0.011,-0.556 0.409,-0.786 0.873,-0.786 0.336,0 0.541,0.05 0.711,0.112 l 0.085,-0.29 c -0.165,-0.063 -0.452,-0.145 -0.86,-0.145 -0.782,0 -1.259,0.463 -1.259,1.141 0,0.69 0.461,1.228 1.207,1.228 0.839,0 1.054,-0.65 1.054,-1.068 0,-0.083 -0.004,-0.15 -0.015,-0.196 l -1.796,0.004 z"
             style="fill:#ffffff;fill-opacity:1;fill-rule:nonzero;stroke:none"
             id="path228"
             inkscape:connector-curvature="0" /></g><g
           id="g230"
           transform="translate(77.5492,20.9657)"><path
             d="m 0,0 c 7.001,0 11.73,4.372 11.73,11.673 0,6.117 -4.02,11.213 -11.376,11.213 -7.036,0 -11.661,-4.964 -11.661,-11.607 C -11.307,4.964 -7.11,0 -0.037,0 L 0,0 z m 0.176,3.98 c -3.627,0 -5.794,3.253 -5.794,7.43 0,4.145 2.096,7.498 5.832,7.498 3.73,0 5.757,-3.421 5.757,-7.4 0,-4.34 -2.098,-7.528 -5.757,-7.528 l -0.038,0 z"
             style="fill:#292c83;fill-opacity:1;fill-rule:nonzero;stroke:none"
             id="path232"
             inkscape:connector-curvature="0" /></g><g
           id="g234"
           transform="translate(87.832,21.3302)"><path
             d="m 0,0 5.366,0 0,7.955 C 5.862,7.856 6.502,7.823 7.214,7.823 c 3.199,0 5.97,0.758 7.818,2.336 1.422,1.216 2.169,3.058 2.169,5.259 0,2.172 -0.994,4.014 -2.523,5.098 -1.598,1.218 -4.018,1.803 -7.356,1.803 L 0,22.319 0,0 z m 5.366,18.345 c 0.391,0.1 1.136,0.166 2.238,0.166 2.735,0 4.231,-1.216 4.231,-3.255 0,-2.236 -1.78,-3.585 -4.656,-3.585 -0.781,0 -1.35,0.032 -1.813,0.133 l 0,6.541 z"
             style="fill:#292c83;fill-opacity:1;fill-rule:nonzero;stroke:none"
             id="path236"
             inkscape:connector-curvature="0" /></g><g
           id="g238"
           transform="translate(107.1364,39.4984)"><path
             d="m 0,0 -6.471,0 -5.758,4.15 24.148,0 0,-4.15 -6.518,0 0,-18.169 -5.401,0 L 0,0 z"
             style="fill:#292c83;fill-opacity:1;fill-rule:nonzero;stroke:none"
             id="path240"
             inkscape:connector-curvature="0" /></g><g
           id="g242"
           transform="translate(56.7639,29.4144)"><path
             d="m 0,0 c -1.873,13.061 -27.433,15.387 -37.976,11.694 l -0.223,4.172 C -22.376,20.664 -5.982,10.618 0,0"
             style="fill:#292c83;fill-opacity:1;fill-rule:nonzero;stroke:none"
             id="path244"
             inkscape:connector-curvature="0" /></g><g
           id="g246"
           transform="translate(15.1181,37.045)"><path
             d="m 0,0 1.661,-4.694 c 0,0 9.952,4.176 20.445,3.492 C 9.621,5.724 0,0 0,0"
             style="fill:#292c83;fill-opacity:1;fill-rule:nonzero;stroke:none"
             id="path248"
             inkscape:connector-curvature="0" /></g><g
           id="g250"
           transform="translate(29.1154,25.506)"><path
             d="m 0,0 2.903,-1.989 c 0,0 1.582,3.968 6.497,5.023 C 4.28,4.572 0,0 0,0"
             style="fill:#292c83;fill-opacity:1;fill-rule:nonzero;stroke:none"
             id="path252"
             inkscape:connector-curvature="0" /></g><g
           id="g254"
           transform="translate(38.0363,31.1733)"><path
             d="m 0,0 c -9.184,5.408 -16.538,-0.94 -16.538,-0.94 l 2.164,-3.049 c 0,0 5.618,5.921 14.374,3.989"
             style="fill:#292c83;fill-opacity:1;fill-rule:nonzero;stroke:none"
             id="path256"
             inkscape:connector-curvature="0" /></g><g
           id="g258"
           transform="translate(57.6181,26.3746)"><path
             d="M 0,0 C -0.604,-0.995 -1.847,-2.581 -1.847,-2.581 1.196,-1.652 12.033,-4.794 14.419,-5.926 6.142,-0.927 2.494,-1.132 0,0"
             style="fill:#292c83;fill-opacity:1;fill-rule:nonzero;stroke:none"
             id="path260"
             inkscape:connector-curvature="0" /></g><g
           id="g262"
           transform="translate(53.7171,28.0641)"><path
             d="M 0,0 C -0.278,0.208 -1.831,1.303 -1.997,1.502 -3.235,2.17 -4.997,0.94 -3.109,0.173 -1.272,-0.574 0.369,-0.278 0,0"
             style="fill:#292c83;fill-opacity:1;fill-rule:nonzero;stroke:none"
             id="path264"
             inkscape:connector-curvature="0" /></g><g
           id="g266"
           transform="translate(47.4406,13.7269)"><path
             d="M 0,0 C -1.801,5.705 6.577,9.573 6.577,9.573 1.148,7.654 -1.063,6.098 -3.266,2.526 L 0,0 z"
             style="fill:#292c83;fill-opacity:1;fill-rule:nonzero;stroke:none"
             id="path268"
             inkscape:connector-curvature="0" /></g></g></g></g></svg>